<svg height="512pt" viewBox="0 0 512 512" width="512pt" xmlns="http://www.w3.org/2000/svg"><g fill="#7080e5"><path d="m132.917969 512h-132.367188v-356.671875h132.367188zm0 0"/><path d="m512 512h-129.679688l.054688-157.789062c.542969-25.609376-9.792969-46.734376-27.648438-56.511719-12.261718-6.714844-26.371093-6.734375-39.609374-.265625l-1.140626 214.566406h-135.71875v-356.671875h135.796876v14.496094c42.191406-17.105469 86.933593-14.636719 125.8125 7.601562 43.820312 25.066407 72.132812 71.410157 72.132812 118.066407zm0 0"/><path d="m66.460938 133.054688c-36.648438 0-66.460938-29.84375-66.460938-66.527344s29.8125-66.527344 66.460938-66.527344c36.644531 0 66.457031 29.84375 66.457031 66.527344s-29.8125 66.527344-66.457031 66.527344zm0 0"/></g><path d="m66.734375 155.328125h66.183594v356.671875h-66.183594zm0 0" fill="#4c60de"/><path d="m132.917969 66.527344c0-36.589844-29.664063-66.371094-66.183594-66.5195315v133.0429685c36.519531-.152343 66.183594-29.929687 66.183594-66.523437zm0 0" fill="#4c60de"/><path d="m439.867188 177.425781c-31.613282-18.082031-67.097657-23.089843-101.9375-15.140625v130.441406c5.796874.40625 11.472656 2.054688 16.796874 4.972657 17.855469 9.777343 28.191407 30.902343 27.644532 56.511719l-.050782 157.789062h129.679688v-216.507812c0-46.65625-28.3125-93-72.132812-118.066407zm0 0" fill="#4c60de"/></svg>